<svg xmlns="http://www.w3.org/2000/svg" version="1.1" xmlns:xlink="http://www.w3.org/1999/xlink" xmlns:svgjs="http://svgjs.dev/svgjs" width="1500" height="1500" viewBox="0 0 1500 1500"><rect width="1500" height="1500" fill="#000000"></rect><g transform="matrix(0.6666666666666666,0,0,0.6666666666666666,249.39393939393943,637.7533168427324)"><svg viewBox="0 0 396 88" data-background-color="#60a5fa" preserveAspectRatio="xMidYMid meet" height="333" width="1500" xmlns="http://www.w3.org/2000/svg" xmlns:xlink="http://www.w3.org/1999/xlink"><g id="tight-bounds" transform="matrix(1,0,0,1,0.2400000000000091,0.4941807109889851)"><svg viewBox="0 0 395.52 87.01163857802204" height="87.01163857802204" width="395.52"><g><svg viewBox="0 0 563.0045340726672 123.85706673877078" height="87.01163857802204" width="395.52"><g><rect width="5.216573875073856" height="90.06971929990203" x="148.612007645044" y="16.893673719434375" fill="#ffffff" opacity="1" stroke-width="0" stroke="transparent" fill-opacity="1" class="rect-yte-0" data-fill-palette-color="primary" rx="1%" id="yte-0" data-palette-color="#ffffff"></rect></g><g transform="matrix(1,0,0,1,167.48453407266723,17.117727747543576)"><svg viewBox="0 0 395.52000000000004 89.62161124368363" height="89.62161124368363" width="395.52000000000004"><g id="textblocktransform"><svg viewBox="0 0 395.52000000000004 89.62161124368363" height="89.62161124368363" width="395.52000000000004" id="textblock"><g><svg viewBox="0 0 395.52000000000004 57.845577494321155" height="57.845577494321155" width="395.52000000000004"><g transform="matrix(1,0,0,1,0,0)"><svg width="395.52000000000004" viewBox="2.1499999999999995 -40.8 286.12 41.849999999999994" height="57.845577494321155" data-palette-color="#ffffff"><g class="wordmark-text-0" data-fill-palette-color="primary" id="text-0"><path d="M6.65-8.15L6.65-8.15 6.65-37.6 2.6-38.15Q2.3-39.05 2.6-39.95L2.6-39.95 9.45-39.8 29.65-39.8 29.7-28.2Q28.6-28 27.85-28.2L27.85-28.2 25.5-37.25 12-37.25 12-22.5 20-22.65 21.15-27.55Q21.9-27.75 23-27.55L23-27.55Q22.8-24.75 22.8-21.1L22.8-21.1Q22.8-17.75 22.95-14.6L22.95-14.6Q22.05-14.3 21.15-14.6L21.15-14.6 20.05-19.8 12-19.95 12-2.2 16.55-1.7Q16.75-0.95 16.55 0.15L16.55 0.15Q13.4 0 9.45 0L9.45 0Q6.5 0 2.3 0.1L2.3 0.1Q2-0.8 2.3-1.7L2.3-1.7 6.45-2.3Q6.65-4.2 6.65-8.15ZM56.9-26.7L56.9-26.7 56.9-7.1Q56.9-3.75 57.05-2.4L57.05-2.4 61-1.9Q61.15-1.1 61 0L61 0Q57.35 0.15 53.4 0.7L53.4 0.7Q53.05 0.35 52.9-0.25L52.9-0.25 52.65-4.7Q50.55-2 48.32-0.5 46.1 1 43.1 1L43.1 1Q40.05 1 37.97-0.55 35.9-2.1 35.9-5.85L35.9-5.85 35.9-16.95Q35.9-22.65 35.75-24.25L35.75-24.25 31.8-24.75Q31.6-25.5 31.8-26.65L31.8-26.65Q35.25-26.9 40.4-27.7L40.4-27.7Q40.85-27.2 40.9-26.7L40.9-26.7Q40.65-25.4 40.65-8.35L40.65-8.35Q40.65-4.85 41.47-3.38 42.3-1.9 44.55-1.9L44.55-1.9Q48.75-1.9 52.15-6.9L52.15-6.9 52.15-17Q52.15-22.65 52-24.25L52-24.25 48.05-24.75Q47.85-25.5 48.05-26.65L48.05-26.65Q51.05-26.85 56.4-27.7L56.4-27.7Q56.85-27.2 56.9-26.7ZM72.5-26.7L72.5-26.7 72.39-21.55Q73.64-23.85 75.87-25.78 78.09-27.7 80.09-27.7L80.09-27.7Q81.64-27.7 82.84-27.35L82.84-27.35Q83.25-26.7 83.25-25.65L83.25-25.65Q83.25-24 82.55-22.35L82.55-22.35Q80.75-22.85 79.09-22.85L79.09-22.85Q75-22.85 72.34-18.85L72.34-18.85 72.25-10.1 72.25-2.55 77.8-1.8Q78-1 77.8 0.2L77.8 0.2Q74.64 0.05 70.59 0.05L70.59 0.05Q67.55 0.05 63.34 0.15L63.34 0.15Q63.05-0.8 63.34-1.8L63.34-1.8 67.3-2.35Q67.5-5.1 67.5-8.7L67.5-8.7 67.5-22.4Q67.5-23.4 67.34-24.25L67.34-24.25 63.39-24.75Q63.2-25.5 63.39-26.65L63.39-26.65Q66.84-26.9 72-27.7L72-27.7Q72.44-27.2 72.5-26.7ZM105.89-8.7L105.89-17.85Q105.89-21.7 104.87-23.25 103.84-24.8 101.44-24.8L101.44-24.8Q97.74-24.8 93.99-19.25L93.99-19.25 93.99-2.55 98.04-1.8Q98.24-1 98.04 0.2L98.04 0.2Q94.89 0.05 91.59 0.05L91.59 0.05Q89.29 0.05 85.09 0.15L85.09 0.15Q84.79-0.8 85.09-1.8L85.09-1.8 89.04-2.35Q89.24-5.1 89.24-8.7L89.24-8.7 89.24-22.4Q89.24-23.4 89.09-24.25L89.09-24.25 85.14-24.75Q84.94-25.5 85.14-26.65L85.14-26.65Q88.59-26.9 93.74-27.7L93.74-27.7Q94.19-27.2 94.24-26.7L94.24-26.7Q93.99-25.4 93.99-22.25L93.99-22.25Q97.94-27.7 102.89-27.7L102.89-27.7Q110.64-27.7 110.64-20.35L110.64-20.35 110.64-2.55 114.69-1.8Q114.89-1 114.69 0.2L114.69 0.2Q111.54 0.05 108.24 0.05L108.24 0.05Q105.94 0.05 101.74 0.15L101.74 0.15Q101.44-0.8 101.74-1.8L101.74-1.8 105.69-2.35Q105.89-5.1 105.89-8.7L105.89-8.7ZM125.84-18.6L125.84-18.6 125.84-2.55 129.89-1.8Q129.94-1.55 129.97-1.35 129.99-1.15 129.99-0.9L129.99-0.9Q129.99-0.65 129.97-0.38 129.94-0.1 129.89 0.2L129.89 0.2Q126.74 0.05 123.44 0.05L123.44 0.05Q122.29 0.05 120.66 0.08 119.04 0.1 116.94 0.15L116.94 0.15Q116.79-0.3 116.79-0.8L116.79-0.8Q116.79-1.25 116.94-1.8L116.94-1.8 120.89-2.35Q120.99-3.75 121.04-5.33 121.09-6.9 121.09-8.7L121.09-8.7 121.09-19.35Q121.09-22.65 120.94-24.25L120.94-24.25 116.99-24.75Q116.89-25 116.89-25.6L116.89-25.6Q116.89-25.85 116.89-26.1 116.89-26.35 116.99-26.65L116.99-26.65Q120.39-26.85 125.59-27.7L125.59-27.7Q126.04-27.2 126.09-26.7L126.09-26.7Q125.84-25.3 125.84-18.6ZM118.54-36.45L118.54-36.45Q118.44-36.7 118.44-36.98 118.44-37.25 118.44-37.5L118.44-37.5Q118.44-38.85 119.56-39.68 120.69-40.5 122.34-40.5L122.34-40.5Q123.89-40.5 124.86-39.58 125.84-38.65 125.84-37.05L125.84-37.05Q125.84-35.75 124.72-34.95 123.59-34.15 121.84-34.15L121.84-34.15Q120.64-34.15 119.72-34.75 118.79-35.35 118.54-36.45ZM137.59-8.15L137.59-8.15 137.59-37.6 133.54-38.15Q133.24-39.05 133.54-39.95L133.54-39.95 140.39-39.8 160.59-39.8 160.64-28.2Q159.54-28 158.79-28.2L158.79-28.2 156.44-37.25 142.94-37.25 142.94-22.5 150.94-22.65 152.09-27.55Q152.84-27.75 153.94-27.55L153.94-27.55Q153.74-24.75 153.74-21.1L153.74-21.1Q153.74-17.75 153.89-14.6L153.89-14.6Q152.99-14.3 152.09-14.6L152.09-14.6 150.99-19.8 142.94-19.95 142.94-2.2 147.49-1.7Q147.69-0.95 147.49 0.15L147.49 0.15Q144.34 0 140.39 0L140.39 0Q137.44 0 133.24 0.1L133.24 0.1Q132.94-0.8 133.24-1.7L133.24-1.7 137.39-2.3Q137.59-4.2 137.59-8.15ZM172.44-18.6L172.44-18.6 172.44-2.55 176.48-1.8Q176.53-1.55 176.56-1.35 176.59-1.15 176.59-0.9L176.59-0.9Q176.59-0.65 176.56-0.38 176.53-0.1 176.48 0.2L176.48 0.2Q173.34 0.05 170.03 0.05L170.03 0.05Q168.88 0.05 167.26 0.08 165.63 0.1 163.53 0.15L163.53 0.15Q163.38-0.3 163.38-0.8L163.38-0.8Q163.38-1.25 163.53-1.8L163.53-1.8 167.48-2.35Q167.59-3.75 167.63-5.33 167.69-6.9 167.69-8.7L167.69-8.7 167.69-19.35Q167.69-22.65 167.53-24.25L167.53-24.25 163.59-24.75Q163.48-25 163.48-25.6L163.48-25.6Q163.48-25.85 163.48-26.1 163.48-26.35 163.59-26.65L163.59-26.65Q166.98-26.85 172.19-27.7L172.19-27.7Q172.63-27.2 172.69-26.7L172.69-26.7Q172.44-25.3 172.44-18.6ZM165.13-36.45L165.13-36.45Q165.03-36.7 165.03-36.98 165.03-37.25 165.03-37.5L165.03-37.5Q165.03-38.85 166.16-39.68 167.28-40.5 168.94-40.5L168.94-40.5Q170.48-40.5 171.46-39.58 172.44-38.65 172.44-37.05L172.44-37.05Q172.44-35.75 171.31-34.95 170.19-34.15 168.44-34.15L168.44-34.15Q167.23-34.15 166.31-34.75 165.38-35.35 165.13-36.45ZM199.83-8.7L199.83-17.85Q199.83-21.7 198.81-23.25 197.78-24.8 195.38-24.8L195.38-24.8Q191.68-24.8 187.93-19.25L187.93-19.25 187.93-2.55 191.98-1.8Q192.18-1 191.98 0.2L191.98 0.2Q188.83 0.05 185.53 0.05L185.53 0.05Q183.23 0.05 179.03 0.15L179.03 0.15Q178.73-0.8 179.03-1.8L179.03-1.8 182.98-2.35Q183.18-5.1 183.18-8.7L183.18-8.7 183.18-22.4Q183.18-23.4 183.03-24.25L183.03-24.25 179.08-24.75Q178.88-25.5 179.08-26.65L179.08-26.65Q182.53-26.9 187.68-27.7L187.68-27.7Q188.13-27.2 188.18-26.7L188.18-26.7Q187.93-25.4 187.93-22.25L187.93-22.25Q191.88-27.7 196.83-27.7L196.83-27.7Q204.58-27.7 204.58-20.35L204.58-20.35 204.58-2.55 208.63-1.8Q208.83-1 208.63 0.2L208.63 0.2Q205.48 0.05 202.18 0.05L202.18 0.05Q199.88 0.05 195.68 0.15L195.68 0.15Q195.38-0.8 195.68-1.8L195.68-1.8 199.63-2.35Q199.83-5.1 199.83-8.7L199.83-8.7ZM235.68-31.7L235.68-7.1Q235.68-3.75 235.83-2.4L235.83-2.4 239.78-1.9Q239.93-1.1 239.78 0L239.78 0Q236.13 0.15 232.18 0.7L232.18 0.7Q231.83 0.35 231.68-0.25L231.68-0.25 231.43-3.45Q229.68-1.4 227.08-0.18 224.48 1.05 221.63 1.05L221.63 1.05Q217.28 1.05 214.43-2.58 211.58-6.2 211.58-12.25L211.58-12.25Q211.58-19.25 215.31-23.48 219.03-27.7 224.23-27.7L224.23-27.7Q228.33-27.7 230.93-25.75L230.93-25.75 230.93-32.45Q230.93-35.75 230.78-37.35L230.78-37.35 226.83-37.85Q226.63-38.6 226.83-39.75L226.83-39.75Q230.28-40 235.43-40.8L235.43-40.8Q235.88-40.3 235.93-39.8L235.93-39.8Q235.68-38.5 235.68-31.7L235.68-31.7ZM223.83-25L223.83-25Q220.58-25 218.63-21.58 216.68-18.15 216.68-12.1L216.68-12.1Q216.68-7.15 218.5-4.55 220.33-1.95 223.33-1.95L223.33-1.95Q225.13-1.95 227.28-3.08 229.43-4.2 230.93-6.2L230.93-6.2 230.93-22.2Q228.48-25 223.83-25ZM263.68-14.1L263.68-14.1 247.98-14.1Q247.53-1.35 255.63-1.35L255.63-1.35Q259.08-1.35 262.68-4.4L262.68-4.4Q263.43-3.95 263.83-2.85L263.83-2.85Q260.38 1 255.08 1L255.08 1Q242.88 1 242.88-13.35L242.88-13.35Q242.88-20.15 246.48-23.93 250.08-27.7 254.88-27.7L254.88-27.7Q260.13-27.7 262.43-24.05 264.73-20.4 264.73-14.55L264.73-14.55Q264.23-14.15 263.68-14.1ZM254.78-25.7L254.78-25.7Q252.18-25.7 250.35-23 248.53-20.3 248.13-16.1L248.13-16.1 254.33-16.1Q258.03-16.1 259.63-16.55L259.63-16.55Q259.63-20.65 258.38-23.18 257.13-25.7 254.78-25.7ZM277.52-26.7L277.52-26.7 277.43-21.55Q278.68-23.85 280.9-25.78 283.13-27.7 285.13-27.7L285.13-27.7Q286.68-27.7 287.88-27.35L287.88-27.35Q288.27-26.7 288.27-25.65L288.27-25.65Q288.27-24 287.57-22.35L287.57-22.35Q285.77-22.85 284.13-22.85L284.13-22.85Q280.02-22.85 277.38-18.85L277.38-18.85 277.27-10.1 277.27-2.55 282.82-1.8Q283.02-1 282.82 0.2L282.82 0.2Q279.68 0.05 275.63 0.05L275.63 0.05Q272.57 0.05 268.38 0.15L268.38 0.15Q268.07-0.8 268.38-1.8L268.38-1.8 272.32-2.35Q272.52-5.1 272.52-8.7L272.52-8.7 272.52-22.4Q272.52-23.4 272.38-24.25L272.38-24.25 268.43-24.75Q268.23-25.5 268.43-26.65L268.43-26.65Q271.88-26.9 277.02-27.7L277.02-27.7Q277.48-27.2 277.52-26.7Z" fill="#ffffff" data-fill-palette-color="primary"></path></g></svg></g></svg></g><g transform="matrix(1,0,0,1,0,71.50153004687051)"><svg viewBox="0 0 232.209792 18.120081196813114" height="18.120081196813114" width="232.209792"><g transform="matrix(1,0,0,1,0,0)"><svg width="232.209792" viewBox="3.78 -33.48 549.0600000000001 42.86" height="18.120081196813114" data-palette-color="#ffffff"><path d="M7.88 0L3.78 0 3.78-31.95 7.88-31.95 7.88 0ZM23.7 0L5 0 5-3.48 23.7-3.48 23.7 0ZM23.18-14.58L6.13-14.58 6.13-18.03 23.18-18.03 23.18-14.58ZM23.55-28.48L4.98-28.48 4.98-31.95 23.55-31.95 23.55-28.48ZM49.82 0L45.77 0 45.77-15.18Q45.77-17.15 45.23-18.57 44.7-20 43.48-20.79 42.27-21.58 40.17-21.58L40.17-21.58Q38.25-21.58 36.84-20.85 35.42-20.13 34.55-18.89 33.67-17.65 33.32-16.07L33.32-16.07 32.6-18.95 33.47-18.95Q33.87-20.6 34.87-21.96 35.87-23.33 37.56-24.14 39.25-24.95 41.7-24.95L41.7-24.95Q44.6-24.95 46.39-23.85 48.17-22.75 49-20.69 49.82-18.63 49.82-15.63L49.82-15.63 49.82 0ZM33.5 0L29.45 0 29.45-24.4 33.5-24.4 33.32-18.55 33.5-18.32 33.5 0ZM76.47 0L72.42 0 72.42-15.18Q72.42-17.15 71.88-18.57 71.34-20 70.13-20.79 68.92-21.58 66.82-21.58L66.82-21.58Q64.9-21.58 63.5-20.85 62.09-20.13 61.23-18.89 60.37-17.65 60.02-16.07L60.02-16.07 59.12-18.95 60.17-18.95Q60.55-20.6 61.55-21.96 62.55-23.33 64.23-24.14 65.92-24.95 68.34-24.95L68.34-24.95Q71.25-24.95 73.03-23.85 74.82-22.75 75.65-20.69 76.47-18.63 76.47-15.63L76.47-15.63 76.47 0ZM60.15 0L56.09 0 56.09-33.13 60.12-33.13 60.12-25.18 60-18.18 60.15-17.85 60.15 0ZM101.24 0L97.22 0 97.39-5.93 97.24-6.55 97.24-14.33 97.27-15.75Q97.27-18.73 95.76-20.15 94.24-21.58 90.97-21.58L90.97-21.58Q88.34-21.58 86.16-20.83 83.97-20.08 82.27-19.07L82.27-19.07 82.64-22.53Q83.59-23.1 84.91-23.66 86.22-24.23 87.91-24.6 89.59-24.98 91.62-24.98L91.62-24.98Q94.24-24.98 96.08-24.34 97.92-23.7 99.06-22.5 100.19-21.3 100.72-19.6 101.24-17.9 101.24-15.8L101.24-15.8 101.24 0ZM88.82 0.53L88.82 0.53Q85.19 0.53 83.26-1.24 81.32-3 81.32-6.28L81.32-6.28 81.32-7Q81.32-10.38 83.41-12.04 85.49-13.7 90.04-14.35L90.04-14.35 97.77-15.45 97.99-12.5 90.54-11.43Q87.74-11.03 86.54-10.06 85.34-9.1 85.34-7.23L85.34-7.23 85.34-6.83Q85.34-4.9 86.53-3.88 87.72-2.85 90.09-2.85L90.09-2.85Q92.19-2.85 93.69-3.58 95.19-4.3 96.12-5.53 97.04-6.75 97.37-8.25L97.37-8.25 97.99-5.5 97.22-5.5Q96.87-3.9 95.91-2.53 94.94-1.15 93.22-0.31 91.49 0.53 88.82 0.53ZM127.82 0L123.77 0 123.77-15.18Q123.77-17.15 123.23-18.57 122.69-20 121.48-20.79 120.27-21.58 118.17-21.58L118.17-21.58Q116.24-21.58 114.83-20.85 113.42-20.13 112.54-18.89 111.67-17.65 111.32-16.07L111.32-16.07 110.59-18.95 111.47-18.95Q111.87-20.6 112.87-21.96 113.87-23.33 115.55-24.14 117.24-24.95 119.69-24.95L119.69-24.95Q122.59-24.95 124.38-23.85 126.17-22.75 126.99-20.69 127.82-18.63 127.82-15.63L127.82-15.63 127.82 0ZM111.49 0L107.44 0 107.44-24.4 111.49-24.4 111.32-18.55 111.49-18.32 111.49 0ZM143.49 0.55L143.49 0.55Q138.24 0.55 135.68-2.29 133.11-5.13 133.11-10.33L133.11-10.33 133.11-14.13Q133.11-19.35 135.69-22.16 138.26-24.98 143.49-24.98L143.49-24.98Q145.04-24.98 146.31-24.69 147.59-24.4 148.6-23.94 149.61-23.48 150.31-22.98L150.31-22.98 150.66-19.45Q149.49-20.35 147.88-20.98 146.26-21.6 144.09-21.6L144.09-21.6Q140.59-21.6 138.88-19.66 137.16-17.73 137.16-14.03L137.16-14.03 137.16-10.43Q137.16-6.8 138.88-4.85 140.59-2.9 144.09-2.9L144.09-2.9Q146.34-2.9 147.98-3.53 149.61-4.15 150.89-5.05L150.89-5.05 150.51-1.48Q149.41-0.73 147.64-0.09 145.86 0.55 143.49 0.55ZM166.04 0.55L166.04 0.55Q160.46 0.55 157.64-2.18 154.81-4.9 154.81-9.98L154.81-9.98 154.81-14.33Q154.81-19.48 157.44-22.26 160.06-25.05 165.11-25.05L165.11-25.05Q168.51-25.05 170.79-23.79 173.06-22.53 174.21-20.2 175.36-17.88 175.36-14.65L175.36-14.65 175.36-13.75Q175.36-12.95 175.3-12.15 175.24-11.35 175.14-10.58L175.14-10.58 171.41-10.58Q171.46-11.78 171.47-12.85 171.49-13.93 171.49-14.83L171.49-14.83Q171.49-17.05 170.77-18.59 170.06-20.13 168.65-20.94 167.24-21.75 165.11-21.75L165.11-21.75Q161.96-21.75 160.39-19.93 158.81-18.1 158.81-14.7L158.81-14.7 158.81-12.38 158.84-11.88 158.84-9.55Q158.84-8.03 159.29-6.8 159.74-5.58 160.7-4.69 161.66-3.8 163.15-3.34 164.64-2.88 166.69-2.88L166.69-2.88Q169.06-2.88 171.11-3.5 173.16-4.13 174.96-5.2L174.96-5.2 174.59-1.7Q172.96-0.68 170.81-0.06 168.66 0.55 166.04 0.55ZM174.29-10.58L156.94-10.58 156.94-13.63 174.29-13.63 174.29-10.58ZM203.48-9.6L199.91-9.6 188.93-31.95 193.31-31.95 199.18-19.73 201.53-14.43 201.86-14.43 204.21-19.73 210.06-31.95 214.46-31.95 203.48-9.6ZM203.73 0L199.66 0 199.66-13.48 203.73-13.48 203.73 0ZM228.38 0.63L228.38 0.63Q223.13 0.63 220.42-2.21 217.7-5.05 217.7-10.38L217.7-10.38 217.7-14.1Q217.7-19.4 220.43-22.23 223.15-25.05 228.38-25.05L228.38-25.05Q233.63-25.05 236.34-22.23 239.05-19.4 239.05-14.1L239.05-14.1 239.05-10.38Q239.05-5.05 236.34-2.21 233.63 0.63 228.38 0.63ZM228.38-2.68L228.38-2.68Q231.63-2.68 233.32-4.6 235-6.53 235-10.15L235-10.15 235-14.33Q235-17.93 233.32-19.84 231.63-21.75 228.38-21.75L228.38-21.75Q225.15-21.75 223.45-19.84 221.75-17.93 221.75-14.33L221.75-14.33 221.75-10.15Q221.75-6.53 223.45-4.6 225.15-2.68 228.38-2.68ZM244.38-24.4L248.4-24.4 248.4-9.22Q248.4-7.3 248.94-5.86 249.48-4.42 250.7-3.64 251.93-2.85 254-2.85L254-2.85Q255.95-2.85 257.35-3.56 258.75-4.28 259.64-5.53 260.53-6.78 260.85-8.35L260.85-8.35 261.58-5.48 260.7-5.48Q260.33-3.83 259.33-2.46 258.33-1.1 256.64-0.29 254.95 0.53 252.48 0.53L252.48 0.53Q249.6 0.53 247.81-0.56 246.03-1.65 245.2-3.74 244.38-5.83 244.38-8.78L244.38-8.78 244.38-24.4ZM260.68-24.4L264.73-24.4 264.73 0 260.68 0 260.85-5.85 260.68-6.1 260.68-24.4ZM275.17-14.93L275.17-14.93 274.25-18.05 275.25-18.1Q276.05-21.2 278-22.99 279.95-24.78 283.17-24.78L283.17-24.78Q283.97-24.78 284.61-24.65 285.25-24.53 285.75-24.35L285.75-24.35 286-20.43Q285.37-20.63 284.61-20.75 283.85-20.88 282.92-20.88L282.92-20.88Q280.17-20.88 278.14-19.35 276.1-17.82 275.17-14.93ZM275.37 0L271.32 0 271.32-24.4 275.27-24.4 275.07-17.2 275.37-16.9 275.37 0ZM305.12-31.95L305.12 0 300.97 0 300.97-31.95 305.12-31.95ZM303.19 0L303.19-3.53 320.04-3.53 320.04 0 303.19 0ZM328.97 0L324.92 0 324.92-24.4 328.97-24.4 328.97 0ZM326.94-28.4L326.94-28.4Q325.69-28.4 325.08-29.06 324.47-29.73 324.47-30.88L324.47-30.88 324.47-31Q324.47-32.18 325.08-32.83 325.69-33.48 326.94-33.48L326.94-33.48Q328.19-33.48 328.81-32.83 329.44-32.18 329.44-31L329.44-31 329.44-30.88Q329.44-29.7 328.81-29.05 328.19-28.4 326.94-28.4ZM344.41-2.78L345.01-2.78 351.76-24.4 355.96-24.4 348.04 0 341.39 0 333.46-24.4 337.66-24.4 344.41-2.78ZM364.49 0L360.44 0 360.44-24.4 364.49-24.4 364.49 0ZM362.46-28.4L362.46-28.4Q361.21-28.4 360.6-29.06 359.99-29.73 359.99-30.88L359.99-30.88 359.99-31Q359.99-32.18 360.6-32.83 361.21-33.48 362.46-33.48L362.46-33.48Q363.71-33.48 364.33-32.83 364.96-32.18 364.96-31L364.96-31 364.96-30.88Q364.96-29.7 364.33-29.05 363.71-28.4 362.46-28.4ZM391.56 0L387.51 0 387.51-15.18Q387.51-17.15 386.97-18.57 386.43-20 385.22-20.79 384.01-21.58 381.91-21.58L381.91-21.58Q379.98-21.58 378.57-20.85 377.16-20.13 376.28-18.89 375.41-17.65 375.06-16.07L375.06-16.07 374.33-18.95 375.21-18.95Q375.61-20.6 376.61-21.96 377.61-23.33 379.3-24.14 380.98-24.95 383.43-24.95L383.43-24.95Q386.33-24.95 388.12-23.85 389.91-22.75 390.73-20.69 391.56-18.63 391.56-15.63L391.56-15.63 391.56 0ZM375.23 0L371.18 0 371.18-24.4 375.23-24.4 375.06-18.55 375.23-18.32 375.23 0ZM407.33-7.3L407.33-7.3Q402.35-7.3 399.69-9.47 397.03-11.65 397.03-15.7L397.03-15.7 397.03-16.32Q397.03-18.85 398.07-20.73 399.1-22.6 401.38-23.66 403.65-24.73 407.33-24.83L407.33-24.83 419.78-25.23 419.78-22.03 412.43-22.28 412.4-22.1Q414.13-21.75 415.23-20.9 416.33-20.05 416.87-18.78 417.4-17.5 417.4-15.8L417.4-15.8 417.4-15.25Q417.4-11.38 414.85-9.34 412.3-7.3 407.33-7.3ZM407.15 6.15L407.15 6.15 407.73 6.15Q409.98 6.15 411.59 5.81 413.2 5.48 414.08 4.75 414.95 4.03 414.95 2.83L414.95 2.83 414.95 2.73Q414.95 1.33 413.94 0.59 412.93-0.15 410.48-0.38L410.48-0.38 403.58-1 404.73-1.05Q403.33-0.85 402.27-0.4 401.2 0.05 400.6 0.79 400 1.53 400 2.63L400 2.63 400 2.68Q400 3.95 400.88 4.73 401.75 5.5 403.35 5.83 404.95 6.15 407.15 6.15ZM407.65 9.38L406.93 9.38Q403.63 9.38 401.24 8.81 398.85 8.25 397.54 6.99 396.23 5.73 396.23 3.6L396.23 3.6 396.23 3.5Q396.23 2 396.94 1 397.65 0 398.87-0.58 400.08-1.15 401.58-1.35L401.58-1.35 401.55-1.5Q399.5-1.85 398.53-2.71 397.55-3.58 397.55-4.95L397.55-4.95 397.55-4.98Q397.55-5.93 397.99-6.6 398.43-7.28 399.32-7.68 400.2-8.08 401.58-8.18L401.58-8.18 401.58-8.68 406.23-7.5 404.33-7.55Q402.63-7.53 401.98-7.14 401.33-6.75 401.33-5.98L401.33-5.98 401.33-5.95Q401.33-5.13 402.25-4.7 403.18-4.28 405.4-4.03L405.4-4.03 411.33-3.43Q415.2-3.03 416.98-1.56 418.75-0.1 418.75 2.75L418.75 2.75 418.75 2.88Q418.75 5.15 417.4 6.6 416.05 8.05 413.58 8.71 411.1 9.38 407.65 9.38L407.65 9.38ZM407.28-10.3L407.28-10.3Q409.38-10.3 410.77-10.91 412.15-11.53 412.87-12.76 413.58-14 413.58-15.8L413.58-15.8 413.58-16.4Q413.58-18.15 412.89-19.38 412.2-20.6 410.83-21.24 409.45-21.88 407.38-21.88L407.38-21.88 407.23-21.88Q404.98-21.88 403.57-21.19 402.15-20.5 401.52-19.26 400.88-18.03 400.88-16.38L400.88-16.38 400.88-15.8Q400.88-14 401.59-12.78 402.3-11.55 403.73-10.93 405.15-10.3 407.28-10.3ZM443.35 0.58L443.35 0.58Q441.05 0.58 439.14 0.2 437.22-0.18 435.72-0.73 434.22-1.28 433.22-1.83L433.22-1.83 432.8-5.95Q434.72-4.8 437.34-3.94 439.95-3.08 443.02-3.08L443.02-3.08Q446.72-3.08 448.5-4.39 450.27-5.7 450.27-8.33L450.27-8.33 450.27-8.72Q450.27-10.45 449.57-11.55 448.87-12.65 447.21-13.4 445.55-14.15 442.7-14.8L442.7-14.8Q439.1-15.65 436.94-16.81 434.77-17.98 433.81-19.73 432.85-21.48 432.85-24.08L432.85-24.08 432.85-24.3Q432.85-28.23 435.42-30.36 438-32.5 443.22-32.5L443.22-32.5Q446.65-32.5 449.06-31.8 451.47-31.1 453-30.25L453-30.25 453.37-26.45Q451.6-27.5 449.24-28.24 446.87-28.98 443.82-28.98L443.82-28.98Q441.4-28.98 439.9-28.4 438.4-27.83 437.72-26.75 437.05-25.68 437.05-24.15L437.05-24.15 437.05-24.05Q437.05-22.5 437.71-21.4 438.37-20.3 440.04-19.5 441.7-18.7 444.77-17.95L444.77-17.95Q448.3-17.13 450.42-16.05 452.55-14.98 453.51-13.25 454.47-11.53 454.47-8.75L454.47-8.75 454.47-8.22Q454.47-3.9 451.69-1.66 448.9 0.58 443.35 0.58ZM472.05 0.53L472.05 0.53Q469.8 0.53 468.15-0.23 466.5-0.98 465.47-2.38 464.45-3.78 464.1-5.63L464.1-5.63 462.77-5.63 463.95-9.43Q464.05-7.23 464.93-5.76 465.82-4.3 467.35-3.58 468.87-2.85 470.8-2.85L470.8-2.85Q473.87-2.85 475.51-4.65 477.15-6.45 477.15-9.93L477.15-9.93 477.15-14.6Q477.15-18.05 475.52-19.85 473.9-21.65 470.8-21.65L470.8-21.65Q468.95-21.65 467.52-20.93 466.1-20.2 465.16-18.95 464.22-17.7 463.87-16.1L463.87-16.1 462.87-18.93 464.05-18.93Q464.45-20.6 465.41-21.96 466.37-23.33 468.06-24.14 469.75-24.95 472.22-24.95L472.22-24.95Q476.62-24.95 478.92-22.21 481.22-19.48 481.22-14.28L481.22-14.28 481.22-10.23Q481.22-4.98 478.91-2.23 476.6 0.53 472.05 0.53ZM464.05 8.6L460.02 8.6 460.02-24.4 464.07-24.4 463.9-18.53 463.95-17.28 463.95-7 463.92-6.18 464.05 0.68 464.05 8.6ZM505.37 0L501.34 0 501.52-5.93 501.37-6.55 501.37-14.33 501.39-15.75Q501.39-18.73 499.88-20.15 498.37-21.58 495.09-21.58L495.09-21.58Q492.47-21.58 490.28-20.83 488.09-20.08 486.39-19.07L486.39-19.07 486.77-22.53Q487.72-23.1 489.03-23.66 490.34-24.23 492.03-24.6 493.72-24.98 495.75-24.98L495.75-24.98Q498.37-24.98 500.21-24.34 502.05-23.7 503.18-22.5 504.32-21.3 504.84-19.6 505.37-17.9 505.37-15.8L505.37-15.8 505.37 0ZM492.94 0.53L492.94 0.53Q489.32 0.53 487.38-1.24 485.44-3 485.44-6.28L485.44-6.28 485.44-7Q485.44-10.38 487.53-12.04 489.62-13.7 494.17-14.35L494.17-14.35 501.89-15.45 502.12-12.5 494.67-11.43Q491.87-11.03 490.67-10.06 489.47-9.1 489.47-7.23L489.47-7.23 489.47-6.83Q489.47-4.9 490.66-3.88 491.84-2.85 494.22-2.85L494.22-2.85Q496.32-2.85 497.82-3.58 499.32-4.3 500.25-5.53 501.17-6.75 501.5-8.25L501.5-8.25 502.12-5.5 501.34-5.5Q501-3.9 500.03-2.53 499.07-1.15 497.34-0.31 495.62 0.53 492.94 0.53ZM520.97 0.55L520.97 0.55Q515.72 0.55 513.15-2.29 510.59-5.13 510.59-10.33L510.59-10.33 510.59-14.13Q510.59-19.35 513.17-22.16 515.74-24.98 520.97-24.98L520.97-24.98Q522.52-24.98 523.79-24.69 525.07-24.4 526.08-23.94 527.09-23.48 527.79-22.98L527.79-22.98 528.14-19.45Q526.97-20.35 525.36-20.98 523.74-21.6 521.57-21.6L521.57-21.6Q518.07-21.6 516.36-19.66 514.64-17.73 514.64-14.03L514.64-14.03 514.64-10.43Q514.64-6.8 516.36-4.85 518.07-2.9 521.57-2.9L521.57-2.9Q523.82-2.9 525.45-3.53 527.09-4.15 528.37-5.05L528.37-5.05 527.99-1.48Q526.89-0.73 525.12-0.09 523.34 0.55 520.97 0.55ZM543.51 0.55L543.51 0.55Q537.94 0.55 535.11-2.18 532.29-4.9 532.29-9.98L532.29-9.98 532.29-14.33Q532.29-19.48 534.91-22.26 537.54-25.05 542.59-25.05L542.59-25.05Q545.99-25.05 548.26-23.79 550.54-22.53 551.69-20.2 552.84-17.88 552.84-14.65L552.84-14.65 552.84-13.75Q552.84-12.95 552.78-12.15 552.71-11.35 552.61-10.58L552.61-10.58 548.89-10.58Q548.94-11.78 548.95-12.85 548.96-13.93 548.96-14.83L548.96-14.83Q548.96-17.05 548.25-18.59 547.54-20.13 546.13-20.94 544.71-21.75 542.59-21.75L542.59-21.75Q539.44-21.75 537.86-19.93 536.29-18.1 536.29-14.7L536.29-14.7 536.29-12.38 536.31-11.88 536.31-9.55Q536.31-8.03 536.76-6.8 537.21-5.58 538.18-4.69 539.14-3.8 540.63-3.34 542.11-2.88 544.16-2.88L544.16-2.88Q546.54-2.88 548.59-3.5 550.64-4.13 552.44-5.2L552.44-5.2 552.06-1.7Q550.44-0.68 548.29-0.06 546.14 0.55 543.51 0.55ZM551.76-10.58L534.41-10.58 534.41-13.63 551.76-13.63 551.76-10.58Z" opacity="1" transform="matrix(1,0,0,1,0,0)" fill="#ffffff" class="slogan-text-1" data-fill-palette-color="secondary" id="text-1"></path></svg></g></svg></g></svg></g></svg></g><g><svg viewBox="0 0 134.95605509249464 123.85706673877078" height="123.85706673877078" width="134.95605509249464"><g><svg version="1.1" xmlns="http://www.w3.org/2000/svg" xmlns:xlink="http://www.w3.org/1999/xlink" x="0" y="0" viewBox="0.145798715412505 4.19 99.99907378911512 91.775" enable-background="new 0.146 4.189 100 91.775" xml:space="preserve" id="icon-0" width="134.95605509249464" height="123.85706673877078" class="icon-icon-0" data-fill-palette-color="accent"><g fill="#ffffff" data-fill-palette-color="accent"><path d="M99.511 38.569L50.993 4.606A1.49 1.49 0 0 0 49.285 4.606L0.779 38.569A1.49 1.49 0 0 0 0.415 40.642L7.021 50.076A1.485 1.485 0 0 0 9.095 50.442L50.146 21.694 91.195 50.442A1.49 1.49 0 0 0 93.269 50.076L99.876 40.642A1.49 1.49 0 0 0 99.511 38.569" fill="#ffffff" data-fill-palette-color="accent"></path><path d="M87.456 53.667L50.999 28.137A1.49 1.49 0 0 0 49.292 28.137L12.641 53.803A1.49 1.49 0 0 0 12.006 55.023V94.477C12.006 95.297 12.673 95.965 13.496 95.965H38.998A1.49 1.49 0 0 0 40.487 94.477V60.095H59.807V94.477C59.807 95.297 60.473 95.965 61.296 95.965H86.605C87.428 95.965 88.091 95.297 88.091 94.477V54.886A1.49 1.49 0 0 0 87.456 53.667" fill="#ffffff" data-fill-palette-color="accent"></path><path d="M74.213 15.768L85.624 23.758A1.49 1.49 0 0 0 87.166 23.86C87.656 23.604 87.967 23.094 87.967 22.539V5.678C87.967 4.856 87.3 4.19 86.478 4.19H75.065C74.243 4.19 73.577 4.857 73.577 5.678V14.549C73.576 15.033 73.812 15.489 74.213 15.768" fill="#ffffff" data-fill-palette-color="accent"></path></g></svg></g></svg></g></svg></g><defs></defs></svg><rect width="395.52" height="87.01163857802204" fill="none" stroke="none" visibility="hidden"></rect></g></svg></g></svg>